<svg viewBox="0 0 32 32"
    xmlns="http://www.w3.org/2000/svg">
    <title>BUSINESS</title>
    <g id="_20.BREAK">
        <path d="M25.75,15H24.43V13.51a1,1,0,0,0-1-1H3a1,1,0,0,0-1,1v5.07C2,23.8,6.61,28,12.29,28h1.86A10.41,10.41,0,0,0,23.22,23h2.53a4.34,4.34,0,0,0,3-1.13A3.82,3.82,0,0,0,30,19,4.12,4.12,0,0,0,25.75,15ZM14.14,26H12.29C7.71,26,4,22.69,4,18.58V14.51H22.43v4.07A6.67,6.67,0,0,1,22,20.82a6.83,6.83,0,0,1-.3.7h0A8.35,8.35,0,0,1,14.14,26Zm13.23-5.68a2.39,2.39,0,0,1-1.62.61H24.1c0-.06,0-.12,0-.18.06-.24.11-.49.15-.74s0-.23.06-.35a8.77,8.77,0,0,0,.08-1.11V17h1.32A2.12,2.12,0,0,1,28,19,1.81,1.81,0,0,1,27.37,20.36Z" />
        <path d="M13,12a1,1,0,0,0,1-1V5a1,1,0,0,0-2,0v6A1,1,0,0,0,13,12Z" />
        <path d="M8,12a1,1,0,0,0,1-1V5A1,1,0,0,0,7,5v6A1,1,0,0,0,8,12Z" />
        <path d="M18,12a1,1,0,0,0,1-1V5a1,1,0,0,0-2,0v6A1,1,0,0,0,18,12Z" />
    </g>
</svg>