<svg viewBox="0 0 32 32"
    xmlns="http://www.w3.org/2000/svg">
    <title>BUSINESS</title>
    <g id="_35.TIME_SMILE">
        <path d="M16,2A14,14,0,1,0,30,16,14,14,0,0,0,16,2Zm0,26A12,12,0,1,1,28,16,12,12,0,0,1,16,28Z" />
        <path d="M15.29,16.71a1,1,0,0,0,1.37,0l7.43-6.5a1,1,0,0,0-1.32-1.51L16,14.63,13,11.58A1,1,0,0,0,11.58,13Z" />
        <path d="M24.52,19.87a1,1,0,0,0-1.41.13A9.23,9.23,0,0,1,8.88,20a1,1,0,0,0-1.54,1.28,11.23,11.23,0,0,0,17.31,0A1,1,0,0,0,24.52,19.87Z" />
    </g>
</svg>